<svg viewBox="0 0 64 64" fill="none" xmlns="http://www.w3.org/2000/svg">
  <defs>
    <linearGradient id="logoGrad" x1="0%" y1="0%" x2="100%" y2="100%">
      <stop offset="0%" stop-color="#34d399" />
      <stop offset="100%" stop-color="#059669" />
    </linearGradient>
    <linearGradient id="flagGrad" x1="0%" y1="0%" x2="100%" y2="100%">
      <stop offset="0%" stop-color="#fbbf24" />
      <stop offset="100%" stop-color="#f59e0b" />
    </linearGradient>
  </defs>

  <!-- Main circle -->
  <circle cx="32" cy="32" r="30" fill="url(#logoGrad)" />

  <!-- Golf flag pole -->
  <rect x="30" y="14" width="2.5" height="32" fill="white" rx="1" />

  <!-- Flag - stylized bird wing shape -->
  <path d="M32.5 14 L50 22 C50 22 45 26 32.5 26 Z" fill="url(#flagGrad)" />

  <!-- Golf ball at base -->
  <circle cx="31" cy="48" r="6" fill="white" />
  <circle cx="29" cy="46" r="1" fill="#e5e7eb" />
  <circle cx="33" cy="47" r="1" fill="#e5e7eb" />
  <circle cx="30" cy="50" r="1" fill="#e5e7eb" />

  <!-- Small heart accent -->
  <path d="M46 38 C46 36 48 35 49 36.5 C50 35 52 36 52 38 C52 40 49 43 49 43 C49 43 46 40 46 38Z" fill="#f87171" />
</svg>
